<svg width="30" height="30" viewBox="0 0 30 30" fill="none" xmlns="http://www.w3.org/2000/svg">
<g id="Layer 2">
<path id="Vector" d="M23.719 3.6105H19.9583C19.8822 3.61074 19.8068 3.59586 19.7365 3.56674C19.6662 3.53761 19.6024 3.49481 19.5488 3.44083L16.8899 0.781925C16.3886 0.28123 15.709 0 15.0004 0C14.2918 0 13.6122 0.28123 13.1109 0.781925L10.4513 3.44151C10.3977 3.49532 10.334 3.53797 10.2638 3.56698C10.1936 3.59598 10.1184 3.61078 10.0424 3.6105H6.28178C5.57343 3.61131 4.89432 3.89306 4.39343 4.39395C3.89255 4.89483 3.6108 5.57394 3.60998 6.28229V10.043C3.61 10.1191 3.59503 10.1944 3.56591 10.2646C3.5368 10.3349 3.49412 10.3987 3.44032 10.4525L0.781412 13.1114C0.281028 13.6128 0 14.2922 0 15.0006C0 15.7089 0.281028 16.3884 0.781412 16.8898L3.441 19.5513C3.49458 19.6048 3.53709 19.6683 3.56609 19.7383C3.59509 19.8082 3.61 19.8831 3.60998 19.9588V23.7189C3.61078 24.4273 3.89251 25.1065 4.39338 25.6074C4.89425 26.1084 5.57337 26.3903 6.28178 26.3913H10.0425C10.1959 26.3915 10.3431 26.4522 10.452 26.5603L13.1115 29.2218C13.6139 29.7205 14.2931 30.0003 15.001 30C15.7089 29.9997 16.3879 29.7195 16.8899 29.2204L19.5481 26.5616C19.6569 26.4527 19.8044 26.3915 19.9583 26.3913H23.719C24.4274 26.3903 25.1065 26.1084 25.6074 25.6074C26.1083 25.1064 26.39 24.4272 26.3908 23.7188V19.9588C26.3908 19.8831 26.4057 19.8082 26.4347 19.7382C26.4637 19.6683 26.5062 19.6048 26.5598 19.5513L26.5605 19.5499L29.2194 16.8911C29.7198 16.3895 30.0008 15.7098 30.0008 15.0013C30.0008 14.2927 29.7198 13.613 29.2194 13.1114L26.5612 10.4532C26.5072 10.3994 26.4643 10.3355 26.4351 10.2651C26.4059 10.1947 26.3908 10.1192 26.3908 10.043V6.28229C26.39 5.57394 26.1082 4.89483 25.6074 4.39395C25.1065 3.89306 24.4274 3.61131 23.719 3.6105ZM15.0004 24.4207C13.1373 24.4207 11.3161 23.8682 9.76705 22.8332C8.21797 21.7981 7.01061 20.3269 6.29765 18.6057C5.58469 16.8845 5.39815 14.9905 5.76161 13.1632C6.12508 11.3359 7.02223 9.6575 8.33961 8.34012C9.65699 7.02274 11.3354 6.12559 13.1627 5.76213C14.9899 5.39866 16.8839 5.58521 18.6052 6.29817C20.3264 7.01113 21.7976 8.21848 22.8327 9.76756C23.8677 11.3166 24.4202 13.1379 24.4202 15.0009C24.4173 17.4983 23.424 19.8926 21.658 21.6586C19.8921 23.4245 17.4978 24.4178 15.0004 24.4207Z" fill="url(#paint0_linear_2256_466)"/>
<path id="Vector_2" d="M14.9984 7.67432C13.5493 7.67432 12.1328 8.10401 10.928 8.90905C9.72316 9.7141 8.7841 10.8583 8.22957 12.1971C7.67505 13.5358 7.52996 15.0089 7.81265 16.4301C8.09535 17.8513 8.79313 19.1568 9.81776 20.1814C10.8424 21.2061 12.1478 21.9038 13.569 22.1865C14.9902 22.4692 16.4634 22.3241 17.8021 21.7696C19.1408 21.2151 20.2851 20.276 21.0901 19.0712C21.8952 17.8664 22.3249 16.4499 22.3249 15.0008C22.3227 13.0584 21.5502 11.1961 20.1766 9.82254C18.8031 8.44901 16.9408 7.67644 14.9984 7.67432ZM18.8783 13.6475L14.6917 17.8341C14.5946 17.9313 14.4792 18.0084 14.3522 18.061C14.2253 18.1137 14.0892 18.1407 13.9517 18.1407C13.8143 18.1407 13.6782 18.1137 13.5512 18.061C13.4242 18.0084 13.3089 17.9313 13.2117 17.8341L11.1184 15.7408C10.9234 15.5443 10.8141 15.2785 10.8146 15.0016C10.8151 14.7247 10.9253 14.4593 11.1211 14.2635C11.3169 14.0677 11.5823 13.9575 11.8592 13.957C12.1361 13.9565 12.4019 14.0657 12.5985 14.2608L13.9517 15.6141L17.3983 12.1675C17.5948 11.9724 17.8606 11.8632 18.1375 11.8637C18.4144 11.8642 18.6798 11.9744 18.8756 12.1702C19.0714 12.366 19.1816 12.6314 19.1821 12.9083C19.1826 13.1852 19.0734 13.451 18.8783 13.6475Z" fill="url(#paint1_linear_2256_466)"/>
</g>
<defs>
<linearGradient id="paint0_linear_2256_466" x1="3.01046" y1="3.99665" x2="26.3675" y2="26.1599" gradientUnits="userSpaceOnUse">
<stop stop-color="#F5DF6B"/>
<stop offset="1" stop-color="#E2B719"/>
</linearGradient>
<linearGradient id="paint1_linear_2256_466" x1="9.14224" y1="9.62641" x2="20.5506" y2="20.4514" gradientUnits="userSpaceOnUse">
<stop stop-color="#E9CA1F"/>
<stop offset="1" stop-color="#D18800"/>
</linearGradient>
</defs>
</svg>
